# xmcd
#
# Track frame offsets:
#	150
#	10730
#	23360
#	39990
#	50270
#	64497
#	79660
#	94335
#	109300
#	122455
#	134190
#	144330
#	154905
#	168787
#	190880
#	203440
#	213282
#	227235
#	238885
#	253860
#
# Disc length: 3516 seconds
#
# Revision: 1
# Processed by: cddbd v1.5.1PL0 Copyright (c) Steve Scherf et al.
# Submitted via: CDex 1.50Beta5
#
DISCID=100dba14
DTITLE=さまざまなアーティスト - BOSSA NOVA BREEZE
DYEAR=1900
DGENRE=Latin
TTITLE0=ローリンド・アルメイダ/イパネマの娘
TTITLE1=ジョージ・シアリング/ワン・ノート・サンバ
TTITLE2=クレア・フィッシャー/コルコワド
TTITLE3=ワンダ・ジ・サー/ソ・ダンソ・サンバ
TTITLE4=ローリンド・アルメイダ/黒いオルフェ
TTITLE5=セルジオ・メンデス/ビリンゾウ
TTITLE6=バド・ジャンク/ボンファに捧ぐ
TTITLE7=クレア・フィッシャー/ハウ・インセンシティブ
TTITLE8=クロード・チアリ/フェリシダージ
TTITLE9=ワンダ・ジ・サー/オルフェのサンバ
TTITLE10=ローリンド・アルメイダ/マシュ・ケ・ナダ
TTITLE11=ジョージ・シアリング/デサフィナード
TTITLE12=バド・シャンク/ジェット機のサンバ
TTITLE13=キャノンボール・アダレイ/雲
TTITLE14=クレア・フィッシャー/過ぎし日の恋
TTITLE15=ワンダ・ジ・サー/おいしい水
TTITLE16=キャピトル・ボサノバ・オールスターズ/メディテイション
TTITLE17=クロード・チアリ/いそしぎ
TTITLE18=バド・シャンク/私の悲しみ
TTITLE19=セルジオ・メンデス/ソー・ナイス
EXTD=
EXTT0=
EXTT1=
EXTT2=
EXTT3=
EXTT4=
EXTT5=
EXTT6=
EXTT7=
EXTT8=
EXTT9=
EXTT10=
EXTT11=
EXTT12=
EXTT13=
EXTT14=
EXTT15=
EXTT16=
EXTT17=
EXTT18=
EXTT19=
PLAYORDER=
